		<svg viewBox="0 0 400 400" class="w-full h-full drop-shadow-2xl" fill="none" xmlns="http://www.w3.org/2000/svg"><path fill="black" d="M 200,340 C 140,340, 60,320, 60,220 C 60,140, 70,120, 100,100 C 90,60, 110,40, 140,50 C 150,55, 160,80, 170,90 C 180,85, 220,85, 230,90 C 240,80, 250,55, 260,50 C 290,40, 310,60, 300,100 C 330,120, 340,140, 340,220 C 340,280, 350,310, 380,330 C 395,340, 390,360, 360,355 C 330,350, 300,320, 280,330 C 260,340, 230,340, 200,340 Z"></path><g fill="white"><ellipse cx="145" cy="190" rx="18" ry="24"></ellipse><ellipse cx="255" cy="190" rx="18" ry="24"></ellipse><circle cx="152" cy="182" r="4" fill="black"></circle><circle cx="262" cy="182" r="4" fill="black"></circle><path d="M 75,230 Q 110,230, 130,235" stroke="white" stroke-width="8" stroke-linecap="round"></path><path d="M 70,260 Q 100,250, 125,255" stroke="white" stroke-width="8" stroke-linecap="round"></path><path d="M 325,230 Q 290,230, 270,235" stroke="white" stroke-width="8" stroke-linecap="round"></path><path d="M 330,260 Q 300,250, 275,255" stroke="white" stroke-width="8" stroke-linecap="round"></path><path d="M 200,235 Q 215,235, 215,225 Q 215,215, 200,215 Q 185,215, 185,225 Q 185,235, 200,235 Z"></path></g></svg>